<?xml version="1.0" encoding="UTF-8"?>
<svg xmlns="http://www.w3.org/2000/svg" xmlns:xlink="http://www.w3.org/1999/xlink" width="512px" height="512px" viewBox="0 0 512 512" version="1.1">
<g id="surface1">
<path style=" stroke:none;fill-rule:nonzero;fill:rgb(9.019608%,41.176471%,100%);fill-opacity:1;" d="M 512 256 C 512 397.386719 397.386719 512 256 512 C 114.613281 512 0 397.386719 0 256 C 0 114.613281 114.613281 0 256 0 C 397.386719 0 512 114.613281 512 256 Z M 512 256 "/>
<path style=" stroke:none;fill-rule:nonzero;fill:rgb(100%,100%,100%);fill-opacity:1;" d="M 180.859375 140 C 191.898438 140 201.972656 140.984375 211.085938 142.929688 C 220.199219 144.875 227.984375 148.070312 234.476562 152.515625 C 240.96875 156.957031 246.003906 162.855469 249.589844 170.230469 C 253.171875 177.601562 254.957031 186.695312 254.957031 197.53125 C 254.957031 209.222656 252.292969 218.972656 246.988281 226.773438 C 241.683594 234.578125 233.820312 240.96875 223.4375 245.945312 C 237.730469 250.0625 248.402344 257.269531 255.445312 267.550781 C 262.492188 277.832031 266.015625 290.242188 266.015625 304.761719 C 266.015625 316.457031 263.742188 326.59375 259.195312 335.15625 C 254.648438 343.714844 248.523438 350.699219 240.824219 356.105469 C 233.125 361.535156 224.359375 365.527344 214.507812 368.128906 C 204.59375 370.730469 194.375 372.039062 184.136719 372.019531 L 71.679688 372.019531 L 71.679688 140 Z M 174.367188 233.902344 C 183.460938 233.902344 190.933594 231.730469 196.792969 227.410156 C 202.648438 223.066406 205.578125 216.042969 205.558594 206.296875 C 205.558594 200.886719 204.574219 196.445312 202.628906 192.984375 C 200.683594 189.523438 198.082031 186.796875 194.828125 184.851562 C 191.570312 182.90625 187.84375 181.554688 183.625 180.796875 C 179.28125 180.039062 174.878906 179.652344 170.453125 179.671875 L 122.714844 179.671875 L 122.714844 233.941406 Z M 177.296875 332.347656 C 182.109375 332.371094 186.902344 331.878906 191.589844 330.894531 C 196.136719 329.914062 200.152344 328.292969 203.613281 326.019531 C 207.074219 323.746094 209.839844 320.65625 211.90625 316.765625 C 213.953125 312.871094 215 307.875 215 301.8125 C 215 289.914062 211.640625 281.394531 204.921875 276.316406 C 198.207031 271.214844 189.316406 268.675781 178.277344 268.675781 L 122.714844 268.675781 L 122.714844 332.371094 Z M 330.199219 327.476562 C 337.121094 334.191406 347.09375 337.550781 360.101562 337.550781 C 369.417969 337.550781 377.425781 335.214844 384.144531 330.566406 C 390.859375 325.917969 394.976562 320.984375 396.492188 315.78125 L 437.105469 315.78125 C 430.613281 335.933594 420.640625 350.332031 407.203125 358.992188 C 393.769531 367.65625 377.527344 372 358.460938 372 C 345.25 372 333.332031 369.890625 322.722656 365.671875 C 312.113281 361.453125 303.125 355.429688 295.75 347.628906 C 288.378906 339.824219 282.683594 330.527344 278.691406 319.691406 C 274.699219 308.859375 272.691406 296.941406 272.691406 283.957031 C 272.691406 271.402344 274.738281 259.707031 278.855469 248.871094 C 282.972656 238.039062 288.828125 228.679688 296.40625 220.773438 C 303.984375 212.867188 313.035156 206.644531 323.542969 202.097656 C 334.050781 197.550781 345.703125 195.277344 358.480469 195.277344 C 372.777344 195.277344 385.230469 198.042969 395.859375 203.570312 C 406.464844 209.101562 415.191406 216.515625 422.011719 225.832031 C 428.832031 235.152344 433.765625 245.761719 436.796875 257.679688 C 439.828125 269.597656 440.914062 282.050781 440.054688 295.054688 L 318.851562 295.054688 C 319.488281 309.945312 323.277344 320.777344 330.199219 327.476562 Z M 382.363281 239.105469 C 376.832031 233.042969 368.433594 230.011719 357.171875 230.011719 C 349.796875 230.011719 343.675781 231.261719 338.820312 233.738281 C 333.945312 236.238281 330.054688 239.308594 327.128906 242.996094 C 324.199219 246.679688 322.152344 250.574219 320.960938 254.6875 C 319.773438 258.804688 319.058594 262.492188 318.851562 265.726562 L 393.914062 265.726562 C 391.722656 254.054688 387.871094 245.167969 382.363281 239.105469 Z M 310.949219 151.777344 L 404.726562 151.777344 L 404.726562 177.785156 L 310.949219 177.785156 Z M 310.949219 151.777344 "/>
</g>
</svg>
