<?xml version="1.0" encoding="UTF-8"?>
<svg xmlns="http://www.w3.org/2000/svg" xmlns:xlink="http://www.w3.org/1999/xlink" width="24px" height="24px" viewBox="0 0 24 24" version="1.1">
<g id="surface1">
<path style=" stroke:none;fill-rule:nonzero;fill:rgb(9.019608%,41.176471%,100%);fill-opacity:1;" d="M 24 12 C 24 18.628906 18.628906 24 12 24 C 5.371094 24 0 18.628906 0 12 C 0 5.371094 5.371094 0 12 0 C 18.628906 0 24 5.371094 24 12 Z M 24 12 "/>
<path style=" stroke:none;fill-rule:nonzero;fill:rgb(100%,100%,100%);fill-opacity:1;" d="M 8.476562 6.5625 C 8.996094 6.5625 9.46875 6.609375 9.894531 6.699219 C 10.320312 6.789062 10.6875 6.941406 10.992188 7.148438 C 11.296875 7.355469 11.53125 7.632812 11.699219 7.980469 C 11.867188 8.324219 11.949219 8.75 11.949219 9.257812 C 11.949219 9.808594 11.828125 10.265625 11.578125 10.628906 C 11.328125 10.996094 10.960938 11.296875 10.472656 11.527344 C 11.144531 11.722656 11.644531 12.058594 11.972656 12.542969 C 12.304688 13.023438 12.46875 13.605469 12.46875 14.285156 C 12.46875 14.832031 12.363281 15.308594 12.148438 15.710938 C 11.9375 16.113281 11.648438 16.4375 11.289062 16.691406 C 10.929688 16.945312 10.515625 17.132812 10.054688 17.257812 C 9.589844 17.378906 9.109375 17.4375 8.632812 17.4375 L 3.359375 17.4375 L 3.359375 6.5625 Z M 8.171875 10.964844 C 8.601562 10.964844 8.949219 10.863281 9.226562 10.660156 C 9.5 10.457031 9.636719 10.128906 9.636719 9.671875 C 9.636719 9.417969 9.589844 9.207031 9.5 9.046875 C 9.40625 8.882812 9.285156 8.757812 9.132812 8.664062 C 8.980469 8.574219 8.804688 8.511719 8.609375 8.476562 C 8.402344 8.4375 8.199219 8.421875 7.988281 8.421875 L 5.753906 8.421875 L 5.753906 10.964844 Z M 8.3125 15.578125 C 8.535156 15.578125 8.761719 15.558594 8.980469 15.511719 C 9.195312 15.464844 9.382812 15.390625 9.542969 15.28125 C 9.707031 15.175781 9.835938 15.03125 9.933594 14.847656 C 10.027344 14.664062 10.078125 14.429688 10.078125 14.148438 C 10.078125 13.589844 9.921875 13.191406 9.605469 12.953125 C 9.289062 12.714844 8.875 12.59375 8.355469 12.59375 L 5.753906 12.59375 L 5.753906 15.578125 Z M 15.476562 15.351562 C 15.800781 15.664062 16.269531 15.824219 16.878906 15.824219 C 17.316406 15.824219 17.691406 15.714844 18.007812 15.496094 C 18.320312 15.277344 18.515625 15.046875 18.585938 14.800781 L 20.488281 14.800781 C 20.183594 15.746094 19.71875 16.421875 19.085938 16.828125 C 18.457031 17.234375 17.695312 17.4375 16.804688 17.4375 C 16.183594 17.4375 15.625 17.339844 15.128906 17.140625 C 14.628906 16.941406 14.210938 16.660156 13.863281 16.296875 C 13.519531 15.929688 13.25 15.492188 13.0625 14.984375 C 12.875 14.476562 12.78125 13.917969 12.78125 13.308594 C 12.78125 12.722656 12.878906 12.171875 13.070312 11.664062 C 13.265625 11.15625 13.539062 10.71875 13.894531 10.347656 C 14.25 9.976562 14.671875 9.6875 15.167969 9.472656 C 15.660156 9.261719 16.203125 9.152344 16.804688 9.152344 C 17.472656 9.152344 18.058594 9.285156 18.554688 9.542969 C 19.054688 9.800781 19.460938 10.148438 19.78125 10.585938 C 20.101562 11.023438 20.332031 11.519531 20.476562 12.078125 C 20.617188 12.636719 20.667969 13.222656 20.628906 13.832031 L 14.945312 13.832031 C 14.976562 14.527344 15.152344 15.035156 15.476562 15.351562 Z M 17.921875 11.207031 C 17.664062 10.925781 17.269531 10.78125 16.742188 10.78125 C 16.398438 10.78125 16.109375 10.839844 15.882812 10.957031 C 15.652344 11.074219 15.472656 11.21875 15.335938 11.390625 C 15.195312 11.5625 15.101562 11.746094 15.046875 11.9375 C 14.988281 12.132812 14.957031 12.304688 14.945312 12.457031 L 18.464844 12.457031 C 18.363281 11.910156 18.179688 11.492188 17.921875 11.207031 Z M 14.574219 7.113281 L 18.972656 7.113281 L 18.972656 8.332031 L 14.574219 8.332031 Z M 14.574219 7.113281 "/>
</g>
</svg>
